<?xml version="1.0" standalone="no"?>
<!DOCTYPE svg PUBLIC "-//W3C//DTD SVG 20010904//EN"
 "http://www.w3.org/TR/2001/REC-SVG-20010904/DTD/svg10.dtd">
<svg version="1.0" xmlns="http://www.w3.org/2000/svg"
 width="286.000000pt" height="286.000000pt" viewBox="0 0 286.000000 286.000000"
 preserveAspectRatio="xMidYMid meet">
<metadata>
Created by potrace 1.11, written by Peter Selinger 2001-2013
</metadata>
<g transform="translate(0.000000,286.000000) scale(0.100000,-0.100000)"
fill="#000000" stroke="none">
<path d="M2788 2716 c-15 -8 -66 -49 -115 -91 -99 -87 -147 -113 -282 -150
-72 -20 -155 -57 -345 -157 -285 -148 -320 -172 -410 -270 l-64 -71 -38 41
c-50 54 -148 97 -483 210 l-256 86 -145 6 c-111 5 -160 12 -209 29 -113 39
-143 57 -319 194 -43 33 -56 34 -86 4 -30 -30 -42 -104 -25 -155 19 -59 165
-321 219 -393 57 -76 91 -102 133 -101 55 1 97 66 76 119 l-9 23 38 -16 c70
-29 143 10 128 69 -5 23 -4 24 67 24 39 -1 81 1 92 4 17 3 20 -1 19 -33 -1
-20 -9 -53 -19 -73 -12 -27 -15 -49 -10 -80 5 -39 3 -45 -17 -56 -27 -14 -39
-30 -34 -44 2 -7 -18 -10 -55 -8 l-59 3 0 -35 c0 -23 -7 -38 -22 -49 -21 -15
-21 -16 -3 -36 12 -13 31 -20 56 -20 42 0 61 19 84 86 9 26 14 31 18 20 7 -17
-13 -82 -37 -118 -9 -13 -12 -29 -7 -36 17 -28 269 -97 559 -153 201 -38 229
-46 252 -69 24 -24 35 -66 54 -205 9 -60 18 -124 21 -141 5 -28 2 -33 -21 -38
-99 -25 -184 -176 -184 -325 0 -131 48 -239 143 -327 90 -84 177 -120 311
-130 110 -9 308 25 391 65 244 120 311 467 130 678 -37 43 -103 87 -148 98
-34 9 -60 42 -184 235 -126 196 -126 197 -60 125 53 -58 56 -60 103 -59 29 1
72 11 104 26 66 30 255 155 289 191 33 36 31 75 -7 106 -31 27 -62 79 -62 106
0 12 11 15 48 14 l47 -2 -37 -10 c-43 -12 -45 -20 -19 -63 21 -34 71 -60 97
-50 14 5 16 16 11 57 -4 31 -13 56 -23 64 -12 8 -14 14 -6 19 19 11 14 35 -16
85 -49 80 -49 78 24 111 78 36 84 36 84 9 0 -55 78 -127 124 -115 31 8 80 75
105 141 37 100 53 205 57 390 5 245 -3 275 -68 241z m-534 -1767 c55 -43 113
-215 102 -303 -12 -109 -93 -213 -202 -263 -70 -32 -289 -51 -402 -34 -127 19
-229 91 -278 194 -50 107 -20 269 57 316 36 22 49 19 49 -8 0 -31 60 -139 91
-166 26 -21 40 -25 100 -25 62 0 73 3 96 26 26 26 27 41 8 124 -3 14 -2 18 1
10 16 -39 80 -54 104 -26 17 22 8 60 -15 65 -11 2 -26 12 -33 22 -16 23 -38
15 -57 -20 -13 -24 -14 -24 -15 -5 0 29 37 74 61 74 10 0 19 -4 19 -9 0 -5 13
-23 29 -40 24 -26 36 -31 75 -31 73 0 166 60 166 106 0 20 13 17 44 -7z"/>
<path d="M2128 853 c-29 -35 -30 -44 -7 -69 32 -34 64 -31 79 6 19 45 6 80
-29 80 -15 0 -35 -8 -43 -17z"/>
<path d="M1996 784 c-85 -58 -63 -104 51 -104 66 0 108 13 98 31 -4 5 -22 16
-40 23 -22 10 -37 24 -41 40 -8 35 -26 38 -68 10z"/>
<path d="M1912 701 c-6 -4 -13 -18 -14 -31 -3 -21 2 -26 26 -28 33 -4 49 14
36 39 -11 20 -33 30 -48 20z"/>
<path d="M611 2072 c-18 -35 -13 -70 13 -87 22 -14 28 -15 60 -1 62 26 76 97
19 94 -15 -1 -40 2 -55 6 -21 6 -29 4 -37 -12z"/>
<path d="M2488 2033 c-42 -17 -44 -22 -23 -62 23 -46 114 -64 128 -27 5 14
-48 106 -61 105 -4 0 -24 -7 -44 -16z"/>
<path d="M474 1973 c-5 -4 -16 -22 -23 -40 -7 -18 -22 -35 -32 -38 -39 -13
-17 -25 45 -25 59 0 66 2 90 31 28 33 30 38 18 56 -9 15 -83 27 -98 16z"/>
<path d="M600 1929 c0 -24 -3 -54 -6 -66 -6 -20 -3 -23 26 -23 23 0 41 9 67
35 43 43 40 67 -7 76 -19 4 -45 10 -57 14 -21 7 -23 4 -23 -36z"/>
<path d="M2593 1931 c-7 -11 -28 -27 -48 -37 -37 -17 -43 -36 -24 -78 19 -40
38 -40 75 1 41 44 51 75 35 109 -13 29 -22 30 -38 5z"/>
<path d="M471 1851 c-36 -3 -66 -11 -68 -17 -5 -15 56 -73 84 -80 30 -8 71 19
79 51 8 31 -1 56 -18 53 -7 -1 -42 -4 -77 -7z"/>
<path d="M2300 1223 c-35 -45 -24 -73 44 -108 32 -17 69 -44 82 -60 54 -67 94
-238 94 -400 0 -108 12 -129 56 -100 29 19 74 107 74 146 0 125 -189 484 -283
536 -32 18 -43 16 -67 -14z"/>
<path d="M1211 804 c-32 -40 -54 -129 -47 -183 13 -95 124 -290 209 -368 59
-53 125 -81 208 -89 39 -4 59 -2 74 9 20 15 19 16 -10 27 -141 54 -268 155
-324 259 -27 50 -33 77 -41 163 -17 200 -30 232 -69 182z"/>
</g>
</svg>
